Blocksync-ExpandedBold.ufo
<glyph name="numbersign" format="2">
  <advance width="686"/>
  <unicode hex="0023"/>
  <outline>
    <contour>
      <point x="81" y="0" type="curve" smooth="yes"/>
      <point x="161" y="0" type="line" smooth="yes"/>
      <point x="195" y="0"/>
      <point x="200" y="11"/>
      <point x="207" y="46" type="curve" smooth="yes"/>
      <point x="352" y="749" type="line" smooth="yes"/>
      <point x="353" y="754"/>
      <point x="354" y="761"/>
      <point x="354" y="767" type="curve" smooth="yes"/>
      <point x="354" y="792"/>
      <point x="337" y="800"/>
      <point x="307" y="800" type="curve" smooth="yes"/>
      <point x="227" y="800" type="line" smooth="yes"/>
      <point x="193" y="800"/>
      <point x="189" y="789"/>
      <point x="182" y="754" type="curve" smooth="yes"/>
      <point x="37" y="51" type="line" smooth="yes"/>
      <point x="35" y="47"/>
      <point x="34" y="41"/>
      <point x="34" y="33" type="curve" smooth="yes"/>
      <point x="34" y="9"/>
      <point x="51" y="0"/>
    </contour>
    <contour>
      <point x="378" y="0" type="curve" smooth="yes"/>
      <point x="458" y="0" type="line" smooth="yes"/>
      <point x="493" y="0"/>
      <point x="497" y="11"/>
      <point x="504" y="46" type="curve" smooth="yes"/>
      <point x="649" y="749" type="line" smooth="yes"/>
      <point x="650" y="754"/>
      <point x="652" y="761"/>
      <point x="652" y="767" type="curve" smooth="yes"/>
      <point x="652" y="792"/>
      <point x="634" y="800"/>
      <point x="605" y="800" type="curve" smooth="yes"/>
      <point x="525" y="800" type="line" smooth="yes"/>
      <point x="490" y="800"/>
      <point x="486" y="789"/>
      <point x="479" y="754" type="curve" smooth="yes"/>
      <point x="334" y="51" type="line" smooth="yes"/>
      <point x="333" y="47"/>
      <point x="331" y="41"/>
      <point x="331" y="33" type="curve" smooth="yes"/>
      <point x="331" y="9"/>
      <point x="349" y="0"/>
    </contour>
    <contour>
      <point x="46" y="160" type="curve" smooth="yes"/>
      <point x="606" y="160" type="line" smooth="yes"/>
      <point x="640" y="160"/>
      <point x="652" y="171"/>
      <point x="652" y="206" type="curve" smooth="yes"/>
      <point x="652" y="274" type="line" smooth="yes"/>
      <point x="652" y="309"/>
      <point x="640" y="320"/>
      <point x="606" y="320" type="curve" smooth="yes"/>
      <point x="46" y="320" type="line" smooth="yes"/>
      <point x="11" y="320"/>
      <point x="0" y="309"/>
      <point x="0" y="274" type="curve" smooth="yes"/>
      <point x="0" y="206" type="line" smooth="yes"/>
      <point x="0" y="171"/>
      <point x="11" y="160"/>
    </contour>
    <contour>
      <point x="80" y="480" type="curve" smooth="yes"/>
      <point x="629" y="480" type="line" smooth="yes"/>
      <point x="663" y="480"/>
      <point x="674" y="491"/>
      <point x="674" y="526" type="curve" smooth="yes"/>
      <point x="674" y="594" type="line" smooth="yes"/>
      <point x="674" y="629"/>
      <point x="663" y="640"/>
      <point x="629" y="640" type="curve" smooth="yes"/>
      <point x="80" y="640" type="line" smooth="yes"/>
      <point x="46" y="640"/>
      <point x="34" y="629"/>
      <point x="34" y="594" type="curve" smooth="yes"/>
      <point x="34" y="526" type="line" smooth="yes"/>
      <point x="34" y="491"/>
      <point x="46" y="480"/>
    </contour>
  </outline>
</glyph>
<glyph name="plus" format="2">
  <advance width="594"/>
  <unicode hex="002B"/>
  <outline>
    <contour>
      <point x="263" y="80" type="curve" smooth="yes"/>
      <point x="331" y="80" type="line" smooth="yes"/>
      <point x="366" y="80"/>
      <point x="377" y="91"/>
      <point x="377" y="126" type="curve" smooth="yes"/>
      <point x="377" y="320" type="line"/>
      <point x="526" y="320" type="line" smooth="yes"/>
      <point x="560" y="320"/>
      <point x="572" y="331"/>
      <point x="572" y="366" type="curve" smooth="yes"/>
      <point x="572" y="434" type="line" smooth="yes"/>
      <point x="572" y="469"/>
      <point x="560" y="480"/>
      <point x="526" y="480" type="curve" smooth="yes"/>
      <point x="377" y="480" type="line"/>
      <point x="377" y="674" type="line" smooth="yes"/>
      <point x="377" y="709"/>
      <point x="366" y="720"/>
      <point x="331" y="720" type="curve" smooth="yes"/>
      <point x="263" y="720" type="line" smooth="yes"/>
      <point x="229" y="720"/>
      <point x="217" y="709"/>
      <point x="217" y="674" type="curve" smooth="yes"/>
      <point x="217" y="480" type="line"/>
      <point x="69" y="480" type="line" smooth="yes"/>
      <point x="34" y="480"/>
      <point x="23" y="469"/>
      <point x="23" y="434" type="curve" smooth="yes"/>
      <point x="23" y="366" type="line" smooth="yes"/>
      <point x="23" y="331"/>
      <point x="34" y="320"/>
      <point x="69" y="320" type="curve" smooth="yes"/>
      <point x="217" y="320" type="line"/>
      <point x="217" y="126" type="line" smooth="yes"/>
      <point x="217" y="91"/>
      <point x="229" y="80"/>
    </contour>
  </outline>
</glyph>
<glyph name="slash" format="2">
  <advance width="366"/>
  <unicode hex="002F"/>
  <outline>
    <contour>
      <point x="70" y="0" type="curve" smooth="yes"/>
      <point x="150" y="0" type="line" smooth="yes"/>
      <point x="184" y="0"/>
      <point x="189" y="11"/>
      <point x="195" y="46" type="curve" smooth="yes"/>
      <point x="341" y="749" type="line" smooth="yes"/>
      <point x="342" y="754"/>
      <point x="343" y="761"/>
      <point x="343" y="767" type="curve" smooth="yes"/>
      <point x="343" y="792"/>
      <point x="326" y="800"/>
      <point x="296" y="800" type="curve" smooth="yes"/>
      <point x="216" y="800" type="line" smooth="yes"/>
      <point x="182" y="800"/>
      <point x="177" y="789"/>
      <point x="170" y="754" type="curve" smooth="yes"/>
      <point x="25" y="51" type="line" smooth="yes"/>
      <point x="24" y="47"/>
      <point x="23" y="41"/>
      <point x="23" y="33" type="curve" smooth="yes"/>
      <point x="23" y="9"/>
      <point x="40" y="0"/>
    </contour>
  </outline>
</glyph>
<glyph name="four" format="2">
  <advance width="553"/>
  <unicode hex="0034"/>
  <outline>
    <contour>
      <point x="313" y="0" type="curve" smooth="yes"/>
      <point x="427" y="0" type="line" smooth="yes"/>
      <point x="462" y="0"/>
      <point x="473" y="11"/>
      <point x="473" y="46" type="curve" smooth="yes"/>
      <point x="473" y="103" type="line" smooth="yes"/>
      <point x="473" y="120"/>
      <point x="479" y="126"/>
      <point x="496" y="126" type="curve" smooth="yes"/>
      <point x="507" y="126" type="line" smooth="yes"/>
      <point x="530" y="126"/>
      <point x="542" y="137"/>
      <point x="542" y="160" type="curve" smooth="yes"/>
      <point x="542" y="240" type="line" smooth="yes"/>
      <point x="542" y="263"/>
      <point x="530" y="274"/>
      <point x="507" y="274" type="curve" smooth="yes"/>
      <point x="496" y="274" type="line" smooth="yes"/>
      <point x="478" y="274"/>
      <point x="473" y="279"/>
      <point x="473" y="297" type="curve" smooth="yes"/>
      <point x="473" y="754" type="line" smooth="yes"/>
      <point x="473" y="789"/>
      <point x="462" y="800"/>
      <point x="429" y="800" type="curve" smooth="yes"/>
      <point x="301" y="800" type="line" smooth="yes"/>
      <point x="264" y="800"/>
      <point x="251" y="794"/>
      <point x="233" y="754" type="curve" smooth="yes"/>
      <point x="27" y="307" type="line" smooth="yes"/>
      <point x="17" y="285"/>
      <point x="11" y="270"/>
      <point x="11" y="247" type="curve" smooth="yes"/>
      <point x="11" y="171" type="line" smooth="yes"/>
      <point x="11" y="137"/>
      <point x="23" y="126"/>
      <point x="57" y="126" type="curve" smooth="yes"/>
      <point x="245" y="126" type="line" smooth="yes"/>
      <point x="262" y="126"/>
      <point x="267" y="120"/>
      <point x="267" y="103" type="curve" smooth="yes"/>
      <point x="267" y="46" type="line" smooth="yes"/>
      <point x="267" y="11"/>
      <point x="279" y="0"/>
    </contour>
    <contour>
      <point x="194" y="274" type="line" smooth="yes"/>
      <point x="186" y="274"/>
      <point x="182" y="277"/>
      <point x="182" y="285" type="curve" smooth="yes"/>
      <point x="182" y="290"/>
      <point x="185" y="298"/>
      <point x="191" y="313" type="curve" smooth="yes"/>
      <point x="250" y="458" type="line" smooth="yes"/>
      <point x="254" y="467"/>
      <point x="257" y="470"/>
      <point x="261" y="470" type="curve" smooth="yes"/>
      <point x="264" y="470"/>
      <point x="267" y="469"/>
      <point x="267" y="458" type="curve" smooth="yes"/>
      <point x="267" y="297" type="line" smooth="yes"/>
      <point x="267" y="280"/>
      <point x="262" y="274"/>
      <point x="245" y="274" type="curve" smooth="yes"/>
    </contour>
  </outline>
</glyph>
<glyph name="five" format="2">
  <advance width="514"/>
  <unicode hex="0035"/>
  <outline>
    <contour>
      <point x="263" y="-11" type="curve" smooth="yes"/>
      <point x="423" y="-11"/>
      <point x="503" y="69"/>
      <point x="503" y="229" type="curve" smooth="yes"/>
      <point x="503" y="343" type="line" smooth="yes"/>
      <point x="503" y="491"/>
      <point x="434" y="549"/>
      <point x="320" y="549" type="curve" smooth="yes"/>
      <point x="238" y="549"/>
      <point x="225" y="526"/>
      <point x="207" y="526" type="curve" smooth="yes"/>
      <point x="198" y="526"/>
      <point x="194" y="529"/>
      <point x="194" y="543" type="curve" smooth="yes"/>
      <point x="194" y="606" type="line" smooth="yes"/>
      <point x="194" y="623"/>
      <point x="200" y="629"/>
      <point x="217" y="629" type="curve" smooth="yes"/>
      <point x="411" y="629" type="line" smooth="yes"/>
      <point x="446" y="629"/>
      <point x="457" y="640"/>
      <point x="457" y="674" type="curve" smooth="yes"/>
      <point x="457" y="761" type="line" smooth="yes"/>
      <point x="457" y="781"/>
      <point x="446" y="800"/>
      <point x="411" y="800" type="curve" smooth="yes"/>
      <point x="80" y="800" type="line" smooth="yes"/>
      <point x="48" y="800"/>
      <point x="34" y="789"/>
      <point x="34" y="754" type="curve" smooth="yes"/>
      <point x="34" y="389" type="line" smooth="yes"/>
      <point x="34" y="354"/>
      <point x="46" y="343"/>
      <point x="80" y="343" type="curve" smooth="yes"/>
      <point x="183" y="343" type="line" smooth="yes"/>
      <point x="200" y="343"/>
      <point x="206" y="350"/>
      <point x="206" y="366" type="curve" smooth="yes"/>
      <point x="206" y="389"/>
      <point x="217" y="411"/>
      <point x="251" y="411" type="curve" smooth="yes"/>
      <point x="286" y="411"/>
      <point x="297" y="389"/>
      <point x="297" y="366" type="curve" smooth="yes"/>
      <point x="297" y="217" type="line" smooth="yes"/>
      <point x="297" y="183"/>
      <point x="286" y="160"/>
      <point x="251" y="160" type="curve" smooth="yes"/>
      <point x="217" y="160"/>
      <point x="206" y="183"/>
      <point x="206" y="217" type="curve" smooth="yes"/>
      <point x="206" y="229" type="line" smooth="yes"/>
      <point x="206" y="263"/>
      <point x="194" y="274"/>
      <point x="160" y="274" type="curve" smooth="yes"/>
      <point x="57" y="274" type="line" smooth="yes"/>
      <point x="23" y="274"/>
      <point x="11" y="263"/>
      <point x="11" y="229" type="curve" smooth="yes"/>
      <point x="11" y="69"/>
      <point x="103" y="-11"/>
    </contour>
  </outline>
</glyph>
<glyph name="eight" format="2">
  <advance width="539"/>
  <unicode hex="0038"/>
  <outline>
    <contour>
      <point x="270" y="-11" type="curve" smooth="yes"/>
      <point x="430" y="-11"/>
      <point x="521" y="69"/>
      <point x="521" y="229" type="curve" smooth="yes"/>
      <point x="521" y="263" type="line" smooth="yes"/>
      <point x="521" y="307"/>
      <point x="491" y="384"/>
      <point x="467" y="408" type="curve" smooth="yes"/>
      <point x="458" y="417"/>
      <point x="453" y="424"/>
      <point x="453" y="430" type="curve" smooth="yes"/>
      <point x="453" y="438"/>
      <point x="449" y="447"/>
      <point x="458" y="458" type="curve" smooth="yes"/>
      <point x="488" y="495"/>
      <point x="498" y="526"/>
      <point x="498" y="572" type="curve" smooth="yes"/>
      <point x="498" y="594" type="line" smooth="yes"/>
      <point x="498" y="743"/>
      <point x="430" y="812"/>
      <point x="270" y="812" type="curve" smooth="yes"/>
      <point x="110" y="812"/>
      <point x="41" y="743"/>
      <point x="41" y="594" type="curve" smooth="yes"/>
      <point x="41" y="572" type="line" smooth="yes"/>
      <point x="41" y="522"/>
      <point x="64" y="482"/>
      <point x="82" y="456" type="curve" smooth="yes"/>
      <point x="95" y="439"/>
      <point x="87" y="438"/>
      <point x="87" y="430" type="curve" smooth="yes"/>
      <point x="87" y="423"/>
      <point x="78" y="414"/>
      <point x="69" y="403" type="curve" smooth="yes"/>
      <point x="45" y="374"/>
      <point x="18" y="307"/>
      <point x="18" y="263" type="curve" smooth="yes"/>
      <point x="18" y="229" type="line" smooth="yes"/>
      <point x="18" y="69"/>
      <point x="110" y="-11"/>
    </contour>
    <contour>
      <point x="270" y="514" type="curve" smooth="yes"/>
      <point x="235" y="514"/>
      <point x="224" y="537"/>
      <point x="224" y="572" type="curve" smooth="yes"/>
      <point x="224" y="583" type="line" smooth="yes"/>
      <point x="224" y="617"/>
      <point x="235" y="640"/>
      <point x="270" y="640" type="curve" smooth="yes"/>
      <point x="304" y="640"/>
      <point x="315" y="617"/>
      <point x="315" y="583" type="curve" smooth="yes"/>
      <point x="315" y="572" type="line" smooth="yes"/>
      <point x="315" y="537"/>
      <point x="304" y="514"/>
    </contour>
    <contour>
      <point x="270" y="160" type="curve" smooth="yes"/>
      <point x="235" y="160"/>
      <point x="224" y="183"/>
      <point x="224" y="217" type="curve" smooth="yes"/>
      <point x="224" y="286" type="line" smooth="yes"/>
      <point x="224" y="320"/>
      <point x="235" y="343"/>
      <point x="270" y="343" type="curve" smooth="yes"/>
      <point x="304" y="343"/>
      <point x="315" y="320"/>
      <point x="315" y="286" type="curve" smooth="yes"/>
      <point x="315" y="217" type="line" smooth="yes"/>
      <point x="315" y="183"/>
      <point x="304" y="160"/>
    </contour>
  </outline>
</glyph>
<glyph name="greater" format="2">
  <advance width="507"/>
  <unicode hex="003E"/>
  <outline>
    <contour>
      <point x="59" y="0" type="curve" smooth="yes"/>
      <point x="94" y="0" type="line" smooth="yes"/>
      <point x="117" y="0"/>
      <point x="137" y="14"/>
      <point x="162" y="39" type="curve" smooth="yes"/>
      <point x="421" y="291" type="line" smooth="yes"/>
      <point x="483" y="352"/>
      <point x="498" y="371"/>
      <point x="498" y="400" type="curve" smooth="yes"/>
      <point x="498" y="422"/>
      <point x="483" y="443"/>
      <point x="421" y="506" type="curve" smooth="yes"/>
      <point x="162" y="761" type="line" smooth="yes"/>
      <point x="135" y="788"/>
      <point x="117" y="800"/>
      <point x="94" y="800" type="curve" smooth="yes"/>
      <point x="59" y="800" type="line" smooth="yes"/>
      <point x="25" y="800"/>
      <point x="14" y="782"/>
      <point x="14" y="754" type="curve" smooth="yes"/>
      <point x="14" y="684" type="line" smooth="yes"/>
      <point x="14" y="653"/>
      <point x="35" y="630"/>
      <point x="58" y="608" type="curve" smooth="yes"/>
      <point x="221" y="455" type="line" smooth="yes"/>
      <point x="241" y="435"/>
      <point x="262" y="417"/>
      <point x="262" y="395" type="curve" smooth="yes"/>
      <point x="262" y="374"/>
      <point x="240" y="354"/>
      <point x="221" y="336" type="curve" smooth="yes"/>
      <point x="58" y="182" type="line" smooth="yes"/>
      <point x="35" y="160"/>
      <point x="14" y="137"/>
      <point x="14" y="106" type="curve" smooth="yes"/>
      <point x="14" y="46" type="line" smooth="yes"/>
      <point x="14" y="18"/>
      <point x="25" y="0"/>
    </contour>
  </outline>
</glyph>
<glyph name="A" format="2">
  <advance width="663"/>
  <unicode hex="0041"/>
  <anchor x="331" y="0" name="bottom"/>
  <anchor x="331" y="800" name="top"/>
  <outline>
    <contour>
      <point x="69" y="0" type="curve" smooth="yes"/>
      <point x="179" y="0" type="line" smooth="yes"/>
      <point x="202" y="0"/>
      <point x="219" y="11"/>
      <point x="225" y="46" type="curve" smooth="yes"/>
      <point x="240" y="137" type="line" smooth="yes"/>
      <point x="242" y="154"/>
      <point x="248" y="160"/>
      <point x="263" y="160" type="curve" smooth="yes"/>
      <point x="400" y="160" type="line" smooth="yes"/>
      <point x="415" y="160"/>
      <point x="421" y="154"/>
      <point x="423" y="137" type="curve" smooth="yes"/>
      <point x="438" y="46" type="line" smooth="yes"/>
      <point x="443" y="11"/>
      <point x="461" y="0"/>
      <point x="483" y="0" type="curve" smooth="yes"/>
      <point x="594" y="0" type="line" smooth="yes"/>
      <point x="629" y="0"/>
      <point x="640" y="11"/>
      <point x="640" y="46" type="curve" smooth="yes"/>
      <point x="640" y="69"/>
      <point x="632" y="114"/>
      <point x="628" y="137" type="curve" smooth="yes"/>
      <point x="503" y="754" type="line" smooth="yes"/>
      <point x="496" y="789"/>
      <point x="480" y="800"/>
      <point x="446" y="800" type="curve" smooth="yes"/>
      <point x="217" y="800" type="line" smooth="yes"/>
      <point x="183" y="800"/>
      <point x="167" y="789"/>
      <point x="160" y="754" type="curve" smooth="yes"/>
      <point x="35" y="137" type="line" smooth="yes"/>
      <point x="31" y="114"/>
      <point x="23" y="69"/>
      <point x="23" y="46" type="curve" smooth="yes"/>
      <point x="23" y="11"/>
      <point x="34" y="0"/>
    </contour>
    <contour>
      <point x="297" y="331" type="line" smooth="yes"/>
      <point x="280" y="331"/>
      <point x="274" y="337"/>
      <point x="274" y="350" type="curve" smooth="yes"/>
      <point x="274" y="358"/>
      <point x="275" y="366"/>
      <point x="278" y="378" type="curve" smooth="yes"/>
      <point x="314" y="606" type="line" smooth="yes"/>
      <point x="317" y="621"/>
      <point x="320" y="629"/>
      <point x="331" y="629" type="curve" smooth="yes"/>
      <point x="342" y="629"/>
      <point x="346" y="621"/>
      <point x="349" y="606" type="curve" smooth="yes"/>
      <point x="385" y="378" type="line" smooth="yes"/>
      <point x="387" y="366"/>
      <point x="389" y="358"/>
      <point x="389" y="350" type="curve" smooth="yes"/>
      <point x="389" y="337"/>
      <point x="383" y="331"/>
      <point x="366" y="331" type="curve" smooth="yes"/>
    </contour>
  </outline>
</glyph>
<glyph name="C" format="2">
  <advance width="640"/>
  <unicode hex="0043"/>
  <anchor x="320" y="800" name="top"/>
  <outline>
    <contour>
      <point x="328" y="-11" type="curve" smooth="yes"/>
      <point x="545" y="-11"/>
      <point x="606" y="103"/>
      <point x="606" y="263" type="curve" smooth="yes"/>
      <point x="606" y="297" type="line" smooth="yes"/>
      <point x="606" y="331"/>
      <point x="594" y="343"/>
      <point x="560" y="343" type="curve" smooth="yes"/>
      <point x="457" y="343" type="line" smooth="yes"/>
      <point x="423" y="343"/>
      <point x="411" y="331"/>
      <point x="411" y="297" type="curve" smooth="yes"/>
      <point x="411" y="286" type="line" smooth="yes"/>
      <point x="411" y="206"/>
      <point x="400" y="160"/>
      <point x="320" y="160" type="curve" smooth="yes"/>
      <point x="251" y="160"/>
      <point x="240" y="206"/>
      <point x="240" y="286" type="curve" smooth="yes"/>
      <point x="240" y="514" type="line" smooth="yes"/>
      <point x="240" y="594"/>
      <point x="251" y="640"/>
      <point x="320" y="640" type="curve" smooth="yes"/>
      <point x="400" y="640"/>
      <point x="411" y="594"/>
      <point x="411" y="514" type="curve" smooth="yes"/>
      <point x="411" y="503" type="line" smooth="yes"/>
      <point x="411" y="469"/>
      <point x="423" y="457"/>
      <point x="457" y="457" type="curve" smooth="yes"/>
      <point x="560" y="457" type="line" smooth="yes"/>
      <point x="594" y="457"/>
      <point x="606" y="469"/>
      <point x="606" y="503" type="curve" smooth="yes"/>
      <point x="606" y="537" type="line" smooth="yes"/>
      <point x="606" y="720"/>
      <point x="537" y="812"/>
      <point x="320" y="812" type="curve" smooth="yes"/>
      <point x="103" y="812"/>
      <point x="34" y="720"/>
      <point x="34" y="503" type="curve" smooth="yes"/>
      <point x="34" y="297" type="line" smooth="yes"/>
      <point x="34" y="80"/>
      <point x="111" y="-11"/>
    </contour>
  </outline>
</glyph>
<glyph name="E" format="2">
  <advance width="549"/>
  <unicode hex="0045"/>
  <anchor x="218" y="800" name="top"/>
  <outline>
    <contour>
      <point x="80" y="0" type="curve" smooth="yes"/>
      <point x="474" y="0" type="line" smooth="yes"/>
      <point x="509" y="0"/>
      <point x="520" y="11"/>
      <point x="520" y="46" type="curve" smooth="yes"/>
      <point x="520" y="126" type="line" smooth="yes"/>
      <point x="520" y="160"/>
      <point x="509" y="171"/>
      <point x="474" y="171" type="curve" smooth="yes"/>
      <point x="263" y="171" type="line" smooth="yes"/>
      <point x="246" y="171"/>
      <point x="240" y="177"/>
      <point x="240" y="194" type="curve" smooth="yes"/>
      <point x="240" y="309" type="line" smooth="yes"/>
      <point x="240" y="326"/>
      <point x="246" y="331"/>
      <point x="263" y="331" type="curve" smooth="yes"/>
      <point x="429" y="331" type="line" smooth="yes"/>
      <point x="463" y="331"/>
      <point x="474" y="343"/>
      <point x="474" y="377" type="curve" smooth="yes"/>
      <point x="474" y="446" type="line" smooth="yes"/>
      <point x="474" y="480"/>
      <point x="463" y="491"/>
      <point x="429" y="491" type="curve" smooth="yes"/>
      <point x="263" y="491" type="line" smooth="yes"/>
      <point x="246" y="491"/>
      <point x="240" y="497"/>
      <point x="240" y="514" type="curve" smooth="yes"/>
      <point x="240" y="606" type="line" smooth="yes"/>
      <point x="240" y="623"/>
      <point x="246" y="629"/>
      <point x="263" y="629" type="curve" smooth="yes"/>
      <point x="474" y="629" type="line" smooth="yes"/>
      <point x="509" y="629"/>
      <point x="520" y="640"/>
      <point x="520" y="674" type="curve" smooth="yes"/>
      <point x="520" y="754" type="line" smooth="yes"/>
      <point x="520" y="789"/>
      <point x="509" y="800"/>
      <point x="474" y="800" type="curve" smooth="yes"/>
      <point x="80" y="800" type="line" smooth="yes"/>
      <point x="46" y="800"/>
      <point x="34" y="789"/>
      <point x="34" y="754" type="curve" smooth="yes"/>
      <point x="34" y="46" type="line" smooth="yes"/>
      <point x="34" y="11"/>
      <point x="46" y="0"/>
    </contour>
  </outline>
</glyph>
<glyph name="F" format="2">
  <advance width="549"/>
  <unicode hex="0046"/>
  <outline>
    <contour>
      <point x="80" y="0" type="curve" smooth="yes"/>
      <point x="194" y="0" type="line" smooth="yes"/>
      <point x="229" y="0"/>
      <point x="240" y="11"/>
      <point x="240" y="46" type="curve" smooth="yes"/>
      <point x="240" y="309" type="line" smooth="yes"/>
      <point x="240" y="326"/>
      <point x="246" y="331"/>
      <point x="263" y="331" type="curve" smooth="yes"/>
      <point x="446" y="331" type="line" smooth="yes"/>
      <point x="480" y="331"/>
      <point x="491" y="343"/>
      <point x="491" y="377" type="curve" smooth="yes"/>
      <point x="491" y="446" type="line" smooth="yes"/>
      <point x="491" y="480"/>
      <point x="480" y="491"/>
      <point x="446" y="491" type="curve" smooth="yes"/>
      <point x="263" y="491" type="line" smooth="yes"/>
      <point x="246" y="491"/>
      <point x="240" y="497"/>
      <point x="240" y="514" type="curve" smooth="yes"/>
      <point x="240" y="606" type="line" smooth="yes"/>
      <point x="240" y="623"/>
      <point x="246" y="629"/>
      <point x="263" y="629" type="curve" smooth="yes"/>
      <point x="491" y="629" type="line" smooth="yes"/>
      <point x="526" y="629"/>
      <point x="537" y="640"/>
      <point x="537" y="674" type="curve" smooth="yes"/>
      <point x="537" y="754" type="line" smooth="yes"/>
      <point x="537" y="789"/>
      <point x="526" y="800"/>
      <point x="491" y="800" type="curve" smooth="yes"/>
      <point x="80" y="800" type="line" smooth="yes"/>
      <point x="46" y="800"/>
      <point x="34" y="789"/>
      <point x="34" y="754" type="curve" smooth="yes"/>
      <point x="34" y="46" type="line" smooth="yes"/>
      <point x="34" y="11"/>
      <point x="46" y="0"/>
    </contour>
  </outline>
</glyph>
<glyph name="I" format="2">
  <advance width="274"/>
  <unicode hex="0049"/>
  <anchor x="126" y="800" name="top"/>
  <outline>
    <contour>
      <point x="80" y="0" type="curve" smooth="yes"/>
      <point x="194" y="0" type="line" smooth="yes"/>
      <point x="229" y="0"/>
      <point x="240" y="11"/>
      <point x="240" y="46" type="curve" smooth="yes"/>
      <point x="240" y="754" type="line" smooth="yes"/>
      <point x="240" y="789"/>
      <point x="229" y="800"/>
      <point x="194" y="800" type="curve" smooth="yes"/>
      <point x="80" y="800" type="line" smooth="yes"/>
      <point x="46" y="800"/>
      <point x="34" y="789"/>
      <point x="34" y="754" type="curve" smooth="yes"/>
      <point x="34" y="46" type="line" smooth="yes"/>
      <point x="34" y="11"/>
      <point x="46" y="0"/>
    </contour>
  </outline>
</glyph>
<glyph name="L" format="2">
  <advance width="514"/>
  <unicode hex="004C"/>
  <anchor x="211" y="0" name="bottom"/>
  <anchor x="223" y="800" name="topright"/>
  <outline>
    <contour>
      <point x="80" y="0" type="curve" smooth="yes"/>
      <point x="446" y="0" type="line" smooth="yes"/>
      <point x="480" y="0"/>
      <point x="491" y="11"/>
      <point x="491" y="46" type="curve" smooth="yes"/>
      <point x="491" y="126" type="line" smooth="yes"/>
      <point x="491" y="160"/>
      <point x="480" y="171"/>
      <point x="446" y="171" type="curve" smooth="yes"/>
      <point x="263" y="171" type="line" smooth="yes"/>
      <point x="246" y="171"/>
      <point x="240" y="177"/>
      <point x="240" y="194" type="curve" smooth="yes"/>
      <point x="240" y="754" type="line" smooth="yes"/>
      <point x="240" y="789"/>
      <point x="229" y="800"/>
      <point x="194" y="800" type="curve" smooth="yes"/>
      <point x="80" y="800" type="line" smooth="yes"/>
      <point x="46" y="800"/>
      <point x="34" y="789"/>
      <point x="34" y="754" type="curve" smooth="yes"/>
      <point x="34" y="46" type="line" smooth="yes"/>
      <point x="34" y="11"/>
      <point x="46" y="0"/>
    </contour>
  </outline>
</glyph>
<glyph name="M" format="2">
  <advance width="800"/>
  <unicode hex="004D"/>
  <outline>
    <contour>
      <point x="80" y="0" type="curve" smooth="yes"/>
      <point x="183" y="0" type="line" smooth="yes"/>
      <point x="217" y="0"/>
      <point x="229" y="11"/>
      <point x="229" y="46" type="curve" smooth="yes"/>
      <point x="229" y="422" type="line" smooth="yes"/>
      <point x="229" y="438"/>
      <point x="232" y="446"/>
      <point x="243" y="446" type="curve" smooth="yes"/>
      <point x="255" y="446"/>
      <point x="256" y="438"/>
      <point x="263" y="406" type="curve" smooth="yes"/>
      <point x="343" y="46" type="line" smooth="yes"/>
      <point x="349" y="21"/>
      <point x="349" y="0"/>
      <point x="371" y="0" type="curve" smooth="yes"/>
      <point x="429" y="0" type="line" smooth="yes"/>
      <point x="451" y="0"/>
      <point x="453" y="23"/>
      <point x="457" y="46" type="curve" smooth="yes"/>
      <point x="537" y="406" type="line" smooth="yes"/>
      <point x="544" y="438"/>
      <point x="545" y="446"/>
      <point x="555" y="446" type="curve" smooth="yes"/>
      <point x="567" y="446"/>
      <point x="572" y="438"/>
      <point x="572" y="422" type="curve" smooth="yes"/>
      <point x="572" y="46" type="line" smooth="yes"/>
      <point x="572" y="11"/>
      <point x="583" y="0"/>
      <point x="617" y="0" type="curve" smooth="yes"/>
      <point x="720" y="0" type="line" smooth="yes"/>
      <point x="754" y="0"/>
      <point x="766" y="11"/>
      <point x="766" y="46" type="curve" smooth="yes"/>
      <point x="766" y="754" type="line" smooth="yes"/>
      <point x="766" y="789"/>
      <point x="754" y="800"/>
      <point x="720" y="800" type="curve" smooth="yes"/>
      <point x="554" y="800" type="line" smooth="yes"/>
      <point x="526" y="800"/>
      <point x="504" y="788"/>
      <point x="497" y="754" type="curve" smooth="yes"/>
      <point x="416" y="387" type="line" smooth="yes"/>
      <point x="410" y="361"/>
      <point x="409" y="354"/>
      <point x="400" y="354" type="curve" smooth="yes"/>
      <point x="391" y="354"/>
      <point x="390" y="361"/>
      <point x="384" y="387" type="curve" smooth="yes"/>
      <point x="303" y="754" type="line" smooth="yes"/>
      <point x="296" y="786"/>
      <point x="274" y="800"/>
      <point x="246" y="800" type="curve" smooth="yes"/>
      <point x="80" y="800" type="line" smooth="yes"/>
      <point x="46" y="800"/>
      <point x="34" y="789"/>
      <point x="34" y="754" type="curve" smooth="yes"/>
      <point x="34" y="46" type="line" smooth="yes"/>
      <point x="34" y="11"/>
      <point x="46" y="0"/>
    </contour>
  </outline>
</glyph>
<glyph name="O" format="2">
  <advance width="663"/>
  <unicode hex="004F"/>
  <anchor x="331" y="800" name="top"/>
  <outline>
    <contour>
      <point x="331" y="-11" type="curve" smooth="yes"/>
      <point x="537" y="-11"/>
      <point x="640" y="80"/>
      <point x="640" y="297" type="curve" smooth="yes"/>
      <point x="640" y="503" type="line" smooth="yes"/>
      <point x="640" y="720"/>
      <point x="537" y="812"/>
      <point x="331" y="812" type="curve" smooth="yes"/>
      <point x="126" y="812"/>
      <point x="23" y="720"/>
      <point x="23" y="503" type="curve" smooth="yes"/>
      <point x="23" y="297" type="line" smooth="yes"/>
      <point x="23" y="80"/>
      <point x="126" y="-11"/>
    </contour>
    <contour>
      <point x="331" y="160" type="curve" smooth="yes"/>
      <point x="263" y="160"/>
      <point x="229" y="206"/>
      <point x="229" y="286" type="curve" smooth="yes"/>
      <point x="229" y="514" type="line" smooth="yes"/>
      <point x="229" y="594"/>
      <point x="263" y="640"/>
      <point x="331" y="640" type="curve" smooth="yes"/>
      <point x="400" y="640"/>
      <point x="434" y="594"/>
      <point x="434" y="514" type="curve" smooth="yes"/>
      <point x="434" y="286" type="line" smooth="yes"/>
      <point x="434" y="206"/>
      <point x="400" y="160"/>
    </contour>
  </outline>
</glyph>
<glyph name="Q" format="2">
  <advance width="686"/>
  <unicode hex="0051"/>
  <outline>
    <contour>
      <point x="331" y="-11" type="curve" smooth="yes"/>
      <point x="409" y="-11"/>
      <point x="487" y="34"/>
      <point x="510" y="34" type="curve" smooth="yes"/>
      <point x="537" y="34"/>
      <point x="549" y="0"/>
      <point x="617" y="0" type="curve" smooth="yes"/>
      <point x="629" y="0" type="line" smooth="yes"/>
      <point x="663" y="0"/>
      <point x="669" y="11"/>
      <point x="669" y="46" type="curve" smooth="yes"/>
      <point x="669" y="137" type="line" smooth="yes"/>
      <point x="669" y="171"/>
      <point x="663" y="183"/>
      <point x="629" y="183" type="curve" smooth="yes"/>
      <point x="612" y="183"/>
      <point x="606" y="190"/>
      <point x="606" y="206" type="curve" smooth="yes"/>
      <point x="606" y="229"/>
      <point x="629" y="246"/>
      <point x="629" y="331" type="curve" smooth="yes"/>
      <point x="629" y="503" type="line" smooth="yes"/>
      <point x="629" y="720"/>
      <point x="537" y="812"/>
      <point x="331" y="812" type="curve" smooth="yes"/>
      <point x="126" y="812"/>
      <point x="34" y="720"/>
      <point x="34" y="503" type="curve" smooth="yes"/>
      <point x="34" y="297" type="line" smooth="yes"/>
      <point x="34" y="80"/>
      <point x="126" y="-11"/>
    </contour>
    <contour>
      <point x="331" y="160" type="curve" smooth="yes"/>
      <point x="263" y="160"/>
      <point x="240" y="206"/>
      <point x="240" y="286" type="curve" smooth="yes"/>
      <point x="240" y="514" type="line" smooth="yes"/>
      <point x="240" y="594"/>
      <point x="263" y="640"/>
      <point x="331" y="640" type="curve" smooth="yes"/>
      <point x="400" y="640"/>
      <point x="423" y="594"/>
      <point x="423" y="514" type="curve" smooth="yes"/>
      <point x="423" y="286" type="line" smooth="yes"/>
      <point x="423" y="206"/>
      <point x="400" y="160"/>
    </contour>
  </outline>
</glyph>
<glyph name="R" format="2">
  <advance width="663"/>
  <unicode hex="0052"/>
  <anchor x="274" y="0" name="bottom"/>
  <anchor x="274" y="800" name="top"/>
  <outline>
    <contour>
      <point x="80" y="0" type="curve" smooth="yes"/>
      <point x="194" y="0" type="line" smooth="yes"/>
      <point x="229" y="0"/>
      <point x="240" y="11"/>
      <point x="240" y="46" type="curve" smooth="yes"/>
      <point x="240" y="297" type="line" smooth="yes"/>
      <point x="240" y="314"/>
      <point x="246" y="320"/>
      <point x="263" y="320" type="curve" smooth="yes"/>
      <point x="343" y="320" type="line" smooth="yes"/>
      <point x="400" y="320"/>
      <point x="423" y="297"/>
      <point x="423" y="229" type="curve" smooth="yes"/>
      <point x="423" y="91" type="line" smooth="yes"/>
      <point x="423" y="34"/>
      <point x="434" y="0"/>
      <point x="491" y="0" type="curve" smooth="yes"/>
      <point x="594" y="0" type="line" smooth="yes"/>
      <point x="629" y="0"/>
      <point x="640" y="11"/>
      <point x="640" y="30" type="curve" smooth="yes"/>
      <point x="640" y="49"/>
      <point x="629" y="49"/>
      <point x="629" y="91" type="curve" smooth="yes"/>
      <point x="629" y="240" type="line" smooth="yes"/>
      <point x="629" y="306"/>
      <point x="610" y="346"/>
      <point x="573" y="377" type="curve" smooth="yes"/>
      <point x="553" y="393"/>
      <point x="551" y="395"/>
      <point x="551" y="401" type="curve" smooth="yes"/>
      <point x="551" y="407"/>
      <point x="559" y="411"/>
      <point x="573" y="425" type="curve" smooth="yes"/>
      <point x="607" y="457"/>
      <point x="629" y="499"/>
      <point x="629" y="560" type="curve" smooth="yes"/>
      <point x="629" y="583" type="line" smooth="yes"/>
      <point x="629" y="732"/>
      <point x="537" y="800"/>
      <point x="389" y="800" type="curve" smooth="yes"/>
      <point x="80" y="800" type="line" smooth="yes"/>
      <point x="46" y="800"/>
      <point x="34" y="789"/>
      <point x="34" y="754" type="curve" smooth="yes"/>
      <point x="34" y="46" type="line" smooth="yes"/>
      <point x="34" y="11"/>
      <point x="46" y="0"/>
    </contour>
    <contour>
      <point x="263" y="480" type="line" smooth="yes"/>
      <point x="246" y="480"/>
      <point x="240" y="486"/>
      <point x="240" y="503" type="curve" smooth="yes"/>
      <point x="240" y="606" type="line" smooth="yes"/>
      <point x="240" y="623"/>
      <point x="246" y="629"/>
      <point x="263" y="629" type="curve" smooth="yes"/>
      <point x="343" y="629" type="line" smooth="yes"/>
      <point x="400" y="629"/>
      <point x="423" y="601"/>
      <point x="423" y="555" type="curve" smooth="yes"/>
      <point x="423" y="553" type="line" smooth="yes"/>
      <point x="423" y="507"/>
      <point x="400" y="480"/>
      <point x="343" y="480" type="curve" smooth="yes"/>
    </contour>
  </outline>
</glyph>
<glyph name="V" format="2">
  <advance width="663"/>
  <unicode hex="0056"/>
  <outline>
    <contour>
      <point x="331" y="171" type="curve" smooth="yes"/>
      <point x="325" y="171"/>
      <point x="322" y="179"/>
      <point x="320" y="194" type="curve" smooth="yes"/>
      <point x="219" y="754" type="line" smooth="yes"/>
      <point x="213" y="790"/>
      <point x="208" y="800"/>
      <point x="185" y="800" type="curve" smooth="yes"/>
      <point x="57" y="800" type="line" smooth="yes"/>
      <point x="23" y="800"/>
      <point x="11" y="789"/>
      <point x="11" y="754" type="curve" smooth="yes"/>
      <point x="11" y="732"/>
      <point x="17" y="686"/>
      <point x="23" y="663" type="curve" smooth="yes"/>
      <point x="171" y="46" type="line" smooth="yes"/>
      <point x="179" y="11"/>
      <point x="194" y="0"/>
      <point x="229" y="0" type="curve" smooth="yes"/>
      <point x="434" y="0" type="line" smooth="yes"/>
      <point x="469" y="0"/>
      <point x="483" y="11"/>
      <point x="491" y="46" type="curve" smooth="yes"/>
      <point x="640" y="663" type="line" smooth="yes"/>
      <point x="646" y="686"/>
      <point x="652" y="732"/>
      <point x="652" y="754" type="curve" smooth="yes"/>
      <point x="652" y="789"/>
      <point x="640" y="800"/>
      <point x="606" y="800" type="curve" smooth="yes"/>
      <point x="478" y="800" type="line" smooth="yes"/>
      <point x="455" y="800"/>
      <point x="450" y="790"/>
      <point x="443" y="754" type="curve" smooth="yes"/>
      <point x="343" y="194" type="line" smooth="yes"/>
      <point x="341" y="179"/>
      <point x="338" y="171"/>
    </contour>
  </outline>
</glyph>
<glyph name="X" format="2">
  <advance width="629"/>
  <unicode hex="0058"/>
  <outline>
    <contour>
      <point x="46" y="0" type="curve" smooth="yes"/>
      <point x="171" y="0" type="line" smooth="yes"/>
      <point x="194" y="0"/>
      <point x="208" y="11"/>
      <point x="217" y="34" type="curve" smooth="yes"/>
      <point x="306" y="261" type="line" smooth="yes"/>
      <point x="314" y="281"/>
      <point x="313" y="286"/>
      <point x="320" y="286" type="curve" smooth="yes"/>
      <point x="327" y="286"/>
      <point x="326" y="281"/>
      <point x="334" y="259" type="curve" smooth="yes"/>
      <point x="423" y="34" type="line" smooth="yes"/>
      <point x="432" y="11"/>
      <point x="434" y="0"/>
      <point x="457" y="0" type="curve" smooth="yes"/>
      <point x="583" y="0" type="line" smooth="yes"/>
      <point x="606" y="0"/>
      <point x="617" y="11"/>
      <point x="617" y="34" type="curve" smooth="yes"/>
      <point x="617" y="46"/>
      <point x="616" y="62"/>
      <point x="606" y="86" type="curve" smooth="yes"/>
      <point x="486" y="368" type="line" smooth="yes"/>
      <point x="473" y="399"/>
      <point x="474" y="407"/>
      <point x="474" y="418" type="curve" smooth="yes"/>
      <point x="474" y="430"/>
      <point x="471" y="438"/>
      <point x="486" y="469" type="curve" smooth="yes"/>
      <point x="606" y="714" type="line" smooth="yes"/>
      <point x="617" y="738"/>
      <point x="617" y="754"/>
      <point x="617" y="766" type="curve" smooth="yes"/>
      <point x="617" y="789"/>
      <point x="606" y="800"/>
      <point x="583" y="800" type="curve" smooth="yes"/>
      <point x="457" y="800" type="line" smooth="yes"/>
      <point x="434" y="800"/>
      <point x="433" y="788"/>
      <point x="423" y="766" type="curve" smooth="yes"/>
      <point x="334" y="577" type="line" smooth="yes"/>
      <point x="323" y="555"/>
      <point x="327" y="551"/>
      <point x="320" y="551" type="curve" smooth="yes"/>
      <point x="313" y="551"/>
      <point x="315" y="557"/>
      <point x="306" y="576" type="curve" smooth="yes"/>
      <point x="217" y="766" type="line" smooth="yes"/>
      <point x="207" y="788"/>
      <point x="194" y="800"/>
      <point x="171" y="800" type="curve" smooth="yes"/>
      <point x="46" y="800" type="line" smooth="yes"/>
      <point x="23" y="800"/>
      <point x="11" y="789"/>
      <point x="11" y="766" type="curve" smooth="yes"/>
      <point x="11" y="754"/>
      <point x="10" y="738"/>
      <point x="23" y="714" type="curve" smooth="yes"/>
      <point x="154" y="469" type="line" smooth="yes"/>
      <point x="170" y="439"/>
      <point x="166" y="430"/>
      <point x="166" y="418" type="curve" smooth="yes"/>
      <point x="166" y="407"/>
      <point x="168" y="398"/>
      <point x="154" y="368" type="curve" smooth="yes"/>
      <point x="23" y="86" type="line" smooth="yes"/>
      <point x="11" y="62"/>
      <point x="11" y="46"/>
      <point x="11" y="34" type="curve" smooth="yes"/>
      <point x="11" y="11"/>
      <point x="23" y="0"/>
    </contour>
  </outline>
</glyph>
<glyph name="Y" format="2">
  <advance width="572"/>
  <unicode hex="0059"/>
  <anchor x="257" y="800" name="top"/>
  <outline>
    <contour>
      <point x="229" y="0" type="curve" smooth="yes"/>
      <point x="343" y="0" type="line" smooth="yes"/>
      <point x="377" y="0"/>
      <point x="389" y="11"/>
      <point x="389" y="46" type="curve" smooth="yes"/>
      <point x="389" y="321" type="line" smooth="yes"/>
      <point x="389" y="335"/>
      <point x="389" y="351"/>
      <point x="394" y="363" type="curve" smooth="yes"/>
      <point x="550" y="719" type="line" smooth="yes"/>
      <point x="557" y="734"/>
      <point x="560" y="748"/>
      <point x="560" y="766" type="curve" smooth="yes"/>
      <point x="560" y="789"/>
      <point x="549" y="800"/>
      <point x="526" y="800" type="curve" smooth="yes"/>
      <point x="406" y="800" type="line" smooth="yes"/>
      <point x="374" y="800"/>
      <point x="368" y="788"/>
      <point x="360" y="766" type="curve" smooth="yes"/>
      <point x="303" y="602" type="line" smooth="yes"/>
      <point x="299" y="591"/>
      <point x="295" y="583"/>
      <point x="286" y="583" type="curve" smooth="yes"/>
      <point x="275" y="583"/>
      <point x="272" y="591"/>
      <point x="269" y="602" type="curve" smooth="yes"/>
      <point x="211" y="766" type="line" smooth="yes"/>
      <point x="203" y="788"/>
      <point x="198" y="800"/>
      <point x="166" y="800" type="curve" smooth="yes"/>
      <point x="46" y="800" type="line" smooth="yes"/>
      <point x="23" y="800"/>
      <point x="11" y="785"/>
      <point x="11" y="766" type="curve" smooth="yes"/>
      <point x="11" y="748"/>
      <point x="15" y="734"/>
      <point x="22" y="719" type="curve" smooth="yes"/>
      <point x="177" y="363" type="line" smooth="yes"/>
      <point x="183" y="351"/>
      <point x="183" y="335"/>
      <point x="183" y="321" type="curve" smooth="yes"/>
      <point x="183" y="46" type="line" smooth="yes"/>
      <point x="183" y="11"/>
      <point x="194" y="0"/>
    </contour>
  </outline>
</glyph>
<glyph name="Z" format="2">
  <advance width="572"/>
  <unicode hex="005A"/>
  <anchor x="257" y="800" name="top"/>
  <outline>
    <contour>
      <point x="57" y="0" type="curve" smooth="yes"/>
      <point x="514" y="0" type="line" smooth="yes"/>
      <point x="549" y="0"/>
      <point x="560" y="11"/>
      <point x="560" y="46" type="curve" smooth="yes"/>
      <point x="560" y="126" type="line" smooth="yes"/>
      <point x="560" y="160"/>
      <point x="549" y="171"/>
      <point x="513" y="171" type="curve" smooth="yes"/>
      <point x="265" y="171" type="line" smooth="yes"/>
      <point x="253" y="171"/>
      <point x="245" y="181"/>
      <point x="245" y="191" type="curve" smooth="yes"/>
      <point x="245" y="209"/>
      <point x="247" y="230"/>
      <point x="271" y="259" type="curve" smooth="yes"/>
      <point x="514" y="563" type="line" smooth="yes"/>
      <point x="552" y="610"/>
      <point x="560" y="618"/>
      <point x="560" y="657" type="curve" smooth="yes"/>
      <point x="560" y="754" type="line" smooth="yes"/>
      <point x="560" y="789"/>
      <point x="549" y="800"/>
      <point x="514" y="800" type="curve" smooth="yes"/>
      <point x="58" y="800" type="line" smooth="yes"/>
      <point x="23" y="800"/>
      <point x="11" y="789"/>
      <point x="11" y="754" type="curve" smooth="yes"/>
      <point x="11" y="674" type="line" smooth="yes"/>
      <point x="11" y="646"/>
      <point x="23" y="629"/>
      <point x="57" y="629" type="curve" smooth="yes"/>
      <point x="295" y="629" type="line" smooth="yes"/>
      <point x="321" y="629"/>
      <point x="329" y="625"/>
      <point x="329" y="613" type="curve" smooth="yes"/>
      <point x="329" y="596"/>
      <point x="321" y="580"/>
      <point x="310" y="565" type="curve" smooth="yes"/>
      <point x="55" y="258" type="line" smooth="yes"/>
      <point x="25" y="222"/>
      <point x="11" y="198"/>
      <point x="11" y="158" type="curve" smooth="yes"/>
      <point x="11" y="46" type="line" smooth="yes"/>
      <point x="11" y="11"/>
      <point x="23" y="0"/>
    </contour>
  </outline>
</glyph>
<glyph name="bracketleft" format="2">
  <advance width="343"/>
  <unicode hex="005B"/>
  <outline>
    <contour>
      <point x="69" y="0" type="curve" smooth="yes"/>
      <point x="286" y="0" type="line" smooth="yes"/>
      <point x="320" y="0"/>
      <point x="331" y="11"/>
      <point x="331" y="46" type="curve" smooth="yes"/>
      <point x="331" y="114" type="line" smooth="yes"/>
      <point x="331" y="149"/>
      <point x="320" y="160"/>
      <point x="286" y="160" type="curve" smooth="yes"/>
      <point x="229" y="160" type="line" smooth="yes"/>
      <point x="211" y="160"/>
      <point x="206" y="166"/>
      <point x="206" y="183" type="curve" smooth="yes"/>
      <point x="206" y="617" type="line" smooth="yes"/>
      <point x="206" y="634"/>
      <point x="211" y="640"/>
      <point x="229" y="640" type="curve" smooth="yes"/>
      <point x="286" y="640" type="line" smooth="yes"/>
      <point x="320" y="640"/>
      <point x="331" y="652"/>
      <point x="331" y="686" type="curve" smooth="yes"/>
      <point x="331" y="754" type="line" smooth="yes"/>
      <point x="331" y="789"/>
      <point x="320" y="800"/>
      <point x="286" y="800" type="curve" smooth="yes"/>
      <point x="69" y="800" type="line" smooth="yes"/>
      <point x="34" y="800"/>
      <point x="23" y="789"/>
      <point x="23" y="754" type="curve" smooth="yes"/>
      <point x="23" y="46" type="line" smooth="yes"/>
      <point x="23" y="11"/>
      <point x="34" y="0"/>
    </contour>
  </outline>
</glyph>
<glyph name="bracketright" format="2">
  <advance width="343"/>
  <unicode hex="005D"/>
  <outline>
    <contour>
      <point x="274" y="0" type="line" smooth="yes"/>
      <point x="309" y="0"/>
      <point x="320" y="11"/>
      <point x="320" y="46" type="curve" smooth="yes"/>
      <point x="320" y="754" type="line" smooth="yes"/>
      <point x="320" y="789"/>
      <point x="309" y="800"/>
      <point x="274" y="800" type="curve" smooth="yes"/>
      <point x="57" y="800" type="line" smooth="yes"/>
      <point x="23" y="800"/>
      <point x="11" y="789"/>
      <point x="11" y="754" type="curve" smooth="yes"/>
      <point x="11" y="686" type="line" smooth="yes"/>
      <point x="11" y="652"/>
      <point x="23" y="640"/>
      <point x="57" y="640" type="curve" smooth="yes"/>
      <point x="114" y="640" type="line" smooth="yes"/>
      <point x="131" y="640"/>
      <point x="137" y="634"/>
      <point x="137" y="617" type="curve" smooth="yes"/>
      <point x="137" y="183" type="line" smooth="yes"/>
      <point x="137" y="166"/>
      <point x="131" y="160"/>
      <point x="114" y="160" type="curve" smooth="yes"/>
      <point x="57" y="160" type="line" smooth="yes"/>
      <point x="23" y="160"/>
      <point x="11" y="149"/>
      <point x="11" y="114" type="curve" smooth="yes"/>
      <point x="11" y="46" type="line" smooth="yes"/>
      <point x="11" y="11"/>
      <point x="23" y="0"/>
      <point x="57" y="0" type="curve" smooth="yes"/>
    </contour>
  </outline>
</glyph>
<glyph name="macron" format="2">
  <advance width="686"/>
  <unicode hex="00AF"/>
  <outline>
    <contour>
      <point x="162" y="640" type="curve" smooth="yes"/>
      <point x="522" y="640" type="line" smooth="yes"/>
      <point x="537" y="640"/>
      <point x="549" y="650"/>
      <point x="549" y="665" type="curve" smooth="yes"/>
      <point x="549" y="743" type="line" smooth="yes"/>
      <point x="549" y="758"/>
      <point x="537" y="769"/>
      <point x="522" y="769" type="curve" smooth="yes"/>
      <point x="162" y="769" type="line" smooth="yes"/>
      <point x="147" y="769"/>
      <point x="137" y="758"/>
      <point x="137" y="743" type="curve" smooth="yes"/>
      <point x="137" y="665" type="line" smooth="yes"/>
      <point x="137" y="650"/>
      <point x="147" y="640"/>
    </contour>
  </outline>
</glyph>
<glyph name="Ccedilla" format="2">
  <advance width="536"/>
  <unicode hex="00C7"/>
  <outline>
    <contour>
      <point x="161" y="-257" type="curve" smooth="yes"/>
      <point x="233" y="-257"/>
      <point x="391" y="-215"/>
      <point x="391" y="-105" type="curve" smooth="yes"/>
      <point x="391" y="-53"/>
      <point x="371" y="-37"/>
      <point x="371" y="-22" type="curve" smooth="yes"/>
      <point x="371" y="-3"/>
      <point x="399" y="10"/>
      <point x="417" y="21" type="curve" smooth="yes"/>
      <point x="486" y="57"/>
      <point x="522" y="127"/>
      <point x="522" y="229" type="curve" smooth="yes"/>
      <point x="522" y="280" type="line" smooth="yes"/>
      <point x="522" y="314"/>
      <point x="511" y="326"/>
      <point x="477" y="326" type="curve" smooth="yes"/>
      <point x="362" y="326" type="line" smooth="yes"/>
      <point x="328" y="326"/>
      <point x="317" y="314"/>
      <point x="317" y="280" type="curve" smooth="yes"/>
      <point x="317" y="217" type="line" smooth="yes"/>
      <point x="317" y="183"/>
      <point x="305" y="160"/>
      <point x="271" y="160" type="curve" smooth="yes"/>
      <point x="237" y="160"/>
      <point x="225" y="183"/>
      <point x="225" y="217" type="curve" smooth="yes"/>
      <point x="225" y="583" type="line" smooth="yes"/>
      <point x="225" y="617"/>
      <point x="237" y="640"/>
      <point x="271" y="640" type="curve" smooth="yes"/>
      <point x="305" y="640"/>
      <point x="317" y="617"/>
      <point x="317" y="583" type="curve" smooth="yes"/>
      <point x="317" y="531" type="line" smooth="yes"/>
      <point x="317" y="497"/>
      <point x="328" y="486"/>
      <point x="362" y="486" type="curve" smooth="yes"/>
      <point x="477" y="486" type="line" smooth="yes"/>
      <point x="511" y="486"/>
      <point x="522" y="497"/>
      <point x="522" y="531" type="curve" smooth="yes"/>
      <point x="522" y="572" type="line" smooth="yes"/>
      <point x="522" y="732"/>
      <point x="431" y="812"/>
      <point x="271" y="812" type="curve" smooth="yes"/>
      <point x="111" y="812"/>
      <point x="19" y="732"/>
      <point x="19" y="572" type="curve" smooth="yes"/>
      <point x="19" y="229" type="line" smooth="yes"/>
      <point x="19" y="123"/>
      <point x="59" y="53"/>
      <point x="131" y="17" type="curve" smooth="yes"/>
      <point x="147" y="9"/>
      <point x="174" y="-1"/>
      <point x="190" y="-16" type="curve" smooth="yes"/>
      <point x="199" y="-25"/>
      <point x="232" y="-31"/>
      <point x="255" y="-33" type="curve" smooth="yes"/>
      <point x="271" y="-34"/>
      <point x="297" y="-82"/>
      <point x="297" y="-97" type="curve" smooth="yes"/>
      <point x="297" y="-135"/>
      <point x="227" y="-141"/>
      <point x="174" y="-141" type="curve" smooth="yes"/>
      <point x="152" y="-141"/>
      <point x="139" y="-136"/>
      <point x="139" y="-171" type="curve" smooth="yes"/>
      <point x="139" y="-237" type="line" smooth="yes"/>
      <point x="139" y="-250"/>
      <point x="147" y="-257"/>
    </contour>
  </outline>
</glyph>
<glyph name="Thorn" format="2">
  <advance width="514"/>
  <unicode hex="00DE"/>
  <outline>
    <contour>
      <point x="69" y="0" type="curve" smooth="yes"/>
      <point x="183" y="0" type="line" smooth="yes"/>
      <point x="217" y="0"/>
      <point x="229" y="11"/>
      <point x="229" y="46" type="curve" smooth="yes"/>
      <point x="229" y="126" type="line" smooth="yes"/>
      <point x="229" y="143"/>
      <point x="234" y="149"/>
      <point x="251" y="149" type="curve" smooth="yes"/>
      <point x="274" y="149" type="line" smooth="yes"/>
      <point x="423" y="149"/>
      <point x="503" y="206"/>
      <point x="503" y="354" type="curve" smooth="yes"/>
      <point x="503" y="434" type="line" smooth="yes"/>
      <point x="503" y="583"/>
      <point x="423" y="652"/>
      <point x="274" y="652" type="curve" smooth="yes"/>
      <point x="251" y="652" type="line" smooth="yes"/>
      <point x="234" y="652"/>
      <point x="229" y="657"/>
      <point x="229" y="674" type="curve" smooth="yes"/>
      <point x="229" y="754" type="line" smooth="yes"/>
      <point x="229" y="789"/>
      <point x="217" y="800"/>
      <point x="183" y="800" type="curve" smooth="yes"/>
      <point x="69" y="800" type="line" smooth="yes"/>
      <point x="34" y="800"/>
      <point x="23" y="789"/>
      <point x="23" y="754" type="curve" smooth="yes"/>
      <point x="23" y="46" type="line" smooth="yes"/>
      <point x="23" y="11"/>
      <point x="34" y="0"/>
    </contour>
    <contour>
      <point x="229" y="331" type="curve" smooth="yes"/>
      <point x="229" y="457" type="line" smooth="yes"/>
      <point x="229" y="474"/>
      <point x="234" y="480"/>
      <point x="251" y="480" type="curve" smooth="yes"/>
      <point x="263" y="480" type="line" smooth="yes"/>
      <point x="297" y="480"/>
      <point x="309" y="469"/>
      <point x="309" y="423" type="curve" smooth="yes"/>
      <point x="309" y="366" type="line" smooth="yes"/>
      <point x="309" y="320"/>
      <point x="297" y="309"/>
      <point x="263" y="309" type="curve" smooth="yes"/>
      <point x="251" y="309" type="line" smooth="yes"/>
      <point x="234" y="309"/>
      <point x="229" y="314"/>
    </contour>
  </outline>
</glyph>
<glyph name="Eogonek" format="2">
  <advance width="440"/>
  <unicode hex="0118"/>
  <outline>
    <contour>
      <point x="69" y="0" type="curve" smooth="yes"/>
      <point x="224" y="0" type="line" smooth="yes"/>
      <point x="238" y="0"/>
      <point x="245" y="-3"/>
      <point x="245" y="-14" type="curve" smooth="yes"/>
      <point x="245" y="-42"/>
      <point x="203" y="-45"/>
      <point x="203" y="-106" type="curve" smooth="yes"/>
      <point x="203" y="-169"/>
      <point x="265" y="-200"/>
      <point x="377" y="-200" type="curve" smooth="yes"/>
      <point x="393" y="-200"/>
      <point x="400" y="-189"/>
      <point x="400" y="-177" type="curve" smooth="yes"/>
      <point x="400" y="-119" type="line" smooth="yes"/>
      <point x="400" y="-105"/>
      <point x="393" y="-96"/>
      <point x="377" y="-96" type="curve" smooth="yes"/>
      <point x="341" y="-96"/>
      <point x="309" y="-81"/>
      <point x="309" y="-58" type="curve" smooth="yes"/>
      <point x="309" y="-31"/>
      <point x="342" y="0"/>
      <point x="377" y="0" type="curve" smooth="yes"/>
      <point x="411" y="0"/>
      <point x="423" y="11"/>
      <point x="423" y="46" type="curve" smooth="yes"/>
      <point x="423" y="126" type="line" smooth="yes"/>
      <point x="423" y="160"/>
      <point x="411" y="171"/>
      <point x="377" y="171" type="curve" smooth="yes"/>
      <point x="251" y="171" type="line" smooth="yes"/>
      <point x="234" y="171"/>
      <point x="229" y="177"/>
      <point x="229" y="194" type="curve" smooth="yes"/>
      <point x="229" y="309" type="line" smooth="yes"/>
      <point x="229" y="326"/>
      <point x="234" y="331"/>
      <point x="251" y="331" type="curve" smooth="yes"/>
      <point x="331" y="331" type="line" smooth="yes"/>
      <point x="366" y="331"/>
      <point x="377" y="343"/>
      <point x="377" y="377" type="curve" smooth="yes"/>
      <point x="377" y="446" type="line" smooth="yes"/>
      <point x="377" y="480"/>
      <point x="366" y="491"/>
      <point x="331" y="491" type="curve" smooth="yes"/>
      <point x="251" y="491" type="line" smooth="yes"/>
      <point x="234" y="491"/>
      <point x="229" y="497"/>
      <point x="229" y="514" type="curve" smooth="yes"/>
      <point x="229" y="606" type="line" smooth="yes"/>
      <point x="229" y="623"/>
      <point x="234" y="629"/>
      <point x="251" y="629" type="curve" smooth="yes"/>
      <point x="377" y="629" type="line" smooth="yes"/>
      <point x="411" y="629"/>
      <point x="423" y="640"/>
      <point x="423" y="674" type="curve" smooth="yes"/>
      <point x="423" y="754" type="line" smooth="yes"/>
      <point x="423" y="789"/>
      <point x="411" y="800"/>
      <point x="377" y="800" type="curve" smooth="yes"/>
      <point x="69" y="800" type="line" smooth="yes"/>
      <point x="34" y="800"/>
      <point x="23" y="789"/>
      <point x="23" y="754" type="curve" smooth="yes"/>
      <point x="23" y="46" type="line" smooth="yes"/>
      <point x="23" y="11"/>
      <point x="34" y="0"/>
    </contour>
  </outline>
</glyph>
<glyph name="Uogonek" format="2">
  <advance width="533"/>
  <unicode hex="0172"/>
  <outline>
    <contour>
      <point x="266" y="-11" type="curve"/>
      <point x="266" y="-34"/>
      <point x="214" y="-43"/>
      <point x="214" y="-105" type="curve" smooth="yes"/>
      <point x="214" y="-168"/>
      <point x="275" y="-199"/>
      <point x="387" y="-199" type="curve" smooth="yes"/>
      <point x="403" y="-199"/>
      <point x="410" y="-187"/>
      <point x="410" y="-176" type="curve" smooth="yes"/>
      <point x="410" y="-118" type="line" smooth="yes"/>
      <point x="410" y="-104"/>
      <point x="403" y="-95"/>
      <point x="387" y="-95" type="curve" smooth="yes"/>
      <point x="351" y="-95"/>
      <point x="319" y="-80"/>
      <point x="319" y="-57" type="curve" smooth="yes"/>
      <point x="319" y="-27"/>
      <point x="359" y="-10"/>
      <point x="395" y="13" type="curve" smooth="yes"/>
      <point x="466" y="57"/>
      <point x="512" y="119"/>
      <point x="512" y="229" type="curve" smooth="yes"/>
      <point x="512" y="754" type="line" smooth="yes"/>
      <point x="512" y="789"/>
      <point x="501" y="800"/>
      <point x="466" y="800" type="curve" smooth="yes"/>
      <point x="352" y="800" type="line" smooth="yes"/>
      <point x="318" y="800"/>
      <point x="306" y="789"/>
      <point x="306" y="754" type="curve" smooth="yes"/>
      <point x="306" y="217" type="line" smooth="yes"/>
      <point x="306" y="171"/>
      <point x="289" y="160"/>
      <point x="266" y="160" type="curve" smooth="yes"/>
      <point x="243" y="160"/>
      <point x="226" y="171"/>
      <point x="226" y="217" type="curve" smooth="yes"/>
      <point x="226" y="754" type="line" smooth="yes"/>
      <point x="226" y="789"/>
      <point x="215" y="800"/>
      <point x="181" y="800" type="curve" smooth="yes"/>
      <point x="66" y="800" type="line" smooth="yes"/>
      <point x="32" y="800"/>
      <point x="21" y="789"/>
      <point x="21" y="754" type="curve" smooth="yes"/>
      <point x="21" y="229" type="line" smooth="yes"/>
      <point x="21" y="69"/>
      <point x="106" y="-11"/>
    </contour>
  </outline>
</glyph>
<glyph name="Germandbls" format="2">
  <advance width="629"/>
  <unicode hex="1E9E"/>
  <outline>
    <contour>
      <point x="67" y="0" type="curve" smooth="yes"/>
      <point x="183" y="0" type="line" smooth="yes"/>
      <point x="217" y="0"/>
      <point x="229" y="11"/>
      <point x="229" y="46" type="curve" smooth="yes"/>
      <point x="229" y="617" type="line" smooth="yes"/>
      <point x="229" y="634"/>
      <point x="234" y="640"/>
      <point x="251" y="640" type="curve" smooth="yes"/>
      <point x="331" y="640" type="line" smooth="yes"/>
      <point x="366" y="640"/>
      <point x="400" y="629"/>
      <point x="400" y="583" type="curve" smooth="yes"/>
      <point x="400" y="549" type="line" smooth="yes"/>
      <point x="400" y="503"/>
      <point x="389" y="491"/>
      <point x="354" y="491" type="curve" smooth="yes"/>
      <point x="343" y="491" type="line" smooth="yes"/>
      <point x="326" y="491"/>
      <point x="320" y="486"/>
      <point x="320" y="469" type="curve" smooth="yes"/>
      <point x="320" y="354" type="line" smooth="yes"/>
      <point x="320" y="337"/>
      <point x="326" y="331"/>
      <point x="343" y="331" type="curve" smooth="yes"/>
      <point x="354" y="331" type="line" smooth="yes"/>
      <point x="389" y="331"/>
      <point x="400" y="320"/>
      <point x="400" y="263" type="curve" smooth="yes"/>
      <point x="400" y="229" type="line" smooth="yes"/>
      <point x="400" y="171"/>
      <point x="389" y="160"/>
      <point x="354" y="160" type="curve" smooth="yes"/>
      <point x="305" y="160" type="line" smooth="yes"/>
      <point x="288" y="160"/>
      <point x="282" y="154"/>
      <point x="282" y="137" type="curve" smooth="yes"/>
      <point x="282" y="23" type="line" smooth="yes"/>
      <point x="282" y="6"/>
      <point x="288" y="0"/>
      <point x="305" y="0" type="curve" smooth="yes"/>
      <point x="400" y="0" type="line" smooth="yes"/>
      <point x="549" y="0"/>
      <point x="617" y="69"/>
      <point x="617" y="206" type="curve" smooth="yes"/>
      <point x="617" y="240" type="line" smooth="yes"/>
      <point x="617" y="343"/>
      <point x="555" y="385"/>
      <point x="526" y="400" type="curve" smooth="yes"/>
      <point x="520" y="403"/>
      <point x="514" y="406"/>
      <point x="514" y="411" type="curve" smooth="yes"/>
      <point x="514" y="417"/>
      <point x="519" y="418"/>
      <point x="526" y="423" type="curve" smooth="yes"/>
      <point x="552" y="440"/>
      <point x="594" y="480"/>
      <point x="594" y="560" type="curve" smooth="yes"/>
      <point x="594" y="594" type="line" smooth="yes"/>
      <point x="594" y="743"/>
      <point x="480" y="800"/>
      <point x="331" y="800" type="curve" smooth="yes"/>
      <point x="69" y="800" type="line" smooth="yes"/>
      <point x="34" y="800"/>
      <point x="23" y="789"/>
      <point x="23" y="754" type="curve" smooth="yes"/>
      <point x="23" y="46" type="line" smooth="yes"/>
      <point x="23" y="11"/>
      <point x="35" y="0"/>
    </contour>
  </outline>
</glyph>
<glyph name="quoteleft" format="2">
  <advance width="217"/>
  <unicode hex="2018"/>
  <outline>
    <contour>
      <point x="80" y="483" type="curve" smooth="yes"/>
      <point x="151" y="483"/>
      <point x="194" y="567"/>
      <point x="194" y="652" type="curve" smooth="yes"/>
      <point x="194" y="754" type="line" smooth="yes"/>
      <point x="194" y="789"/>
      <point x="183" y="800"/>
      <point x="149" y="800" type="curve" smooth="yes"/>
      <point x="69" y="800" type="line" smooth="yes"/>
      <point x="34" y="800"/>
      <point x="23" y="789"/>
      <point x="23" y="754" type="curve" smooth="yes"/>
      <point x="23" y="674" type="line" smooth="yes"/>
      <point x="23" y="640"/>
      <point x="34" y="629"/>
      <point x="69" y="629" type="curve" smooth="yes"/>
      <point x="94" y="629" type="line" smooth="yes"/>
      <point x="106" y="629"/>
      <point x="111" y="623"/>
      <point x="111" y="612" type="curve" smooth="yes"/>
      <point x="111" y="573"/>
      <point x="98" y="555"/>
      <point x="75" y="538" type="curve" smooth="yes"/>
      <point x="66" y="531"/>
      <point x="63" y="526"/>
      <point x="63" y="518" type="curve" smooth="yes"/>
      <point x="63" y="501" type="line" smooth="yes"/>
      <point x="63" y="489"/>
      <point x="69" y="483"/>
    </contour>
  </outline>
</glyph>
<glyph name="bullet" format="2">
  <advance width="389"/>
  <unicode hex="2022"/>
  <outline>
    <contour>
      <point x="194" y="160" type="curve" smooth="yes"/>
      <point x="289" y="160"/>
      <point x="366" y="237"/>
      <point x="366" y="331" type="curve" smooth="yes"/>
      <point x="366" y="426"/>
      <point x="289" y="503"/>
      <point x="194" y="503" type="curve" smooth="yes"/>
      <point x="99" y="503"/>
      <point x="23" y="426"/>
      <point x="23" y="331" type="curve" smooth="yes"/>
      <point x="23" y="237"/>
      <point x="99" y="160"/>
    </contour>
  </outline>
</glyph>
<glyph name="caroncomb.case" format="2">
  <anchor x="149" y="800" name="_top"/>
  <anchor x="149" y="994" name="top"/>
  <outline>
    <contour>
      <point x="280" y="1006" type="curve" smooth="yes"/>
      <point x="263" y="1006" type="line" smooth="yes"/>
      <point x="246" y="1006"/>
      <point x="237" y="996"/>
      <point x="217" y="983" type="curve" smooth="yes"/>
      <point x="171" y="954" type="line" smooth="yes"/>
      <point x="161" y="948"/>
      <point x="155" y="944"/>
      <point x="149" y="944" type="curve" smooth="yes"/>
      <point x="142" y="944"/>
      <point x="134" y="948"/>
      <point x="126" y="953" type="curve" smooth="yes"/>
      <point x="80" y="983" type="line" smooth="yes"/>
      <point x="62" y="994"/>
      <point x="51" y="1006"/>
      <point x="34" y="1006" type="curve" smooth="yes"/>
      <point x="17" y="1006" type="line" smooth="yes"/>
      <point x="2" y="1006"/>
      <point x="-6" y="1000"/>
      <point x="-6" y="990" type="curve" smooth="yes"/>
      <point x="-6" y="976"/>
      <point x="3" y="961"/>
      <point x="17" y="943" type="curve" smooth="yes"/>
      <point x="64" y="880" type="line" smooth="yes"/>
      <point x="82" y="856"/>
      <point x="95" y="846"/>
      <point x="114" y="846" type="curve" smooth="yes"/>
      <point x="183" y="846" type="line" smooth="yes"/>
      <point x="202" y="846"/>
      <point x="222" y="856"/>
      <point x="238" y="880" type="curve" smooth="yes"/>
      <point x="281" y="943" type="line" smooth="yes"/>
      <point x="294" y="961"/>
      <point x="303" y="975"/>
      <point x="303" y="990" type="curve" smooth="yes"/>
      <point x="303" y="1000"/>
      <point x="295" y="1006"/>
    </contour>
  </outline>
</glyph>
<glyph name="gravecomb.case" format="2">
  <anchor x="143" y="800" name="_top"/>
  <anchor x="82" y="1005" name="top"/>
  <outline>
    <contour>
      <point x="189" y="846" type="line" smooth="yes"/>
      <point x="206" y="846"/>
      <point x="211" y="857"/>
      <point x="211" y="869" type="curve" smooth="yes"/>
      <point x="211" y="874"/>
      <point x="208" y="881"/>
      <point x="200" y="898" type="curve" smooth="yes"/>
      <point x="166" y="970" type="line" smooth="yes"/>
      <point x="149" y="1006"/>
      <point x="143" y="1005"/>
      <point x="120" y="1005" type="curve" smooth="yes"/>
      <point x="21" y="1005" type="line" smooth="yes"/>
      <point x="-2" y="1005"/>
      <point x="-14" y="998"/>
      <point x="-14" y="982" type="curve" smooth="yes"/>
      <point x="-14" y="970"/>
      <point x="-7" y="962"/>
      <point x="2" y="950" type="curve" smooth="yes"/>
      <point x="66" y="869" type="line" smooth="yes"/>
      <point x="86" y="845"/>
      <point x="97" y="846"/>
      <point x="109" y="846" type="curve" smooth="yes"/>
    </contour>
  </outline>
</glyph>
<glyph name="tildecomb.case" format="2">
  <anchor x="143" y="800" name="_top"/>
  <anchor x="175" y="1017" name="top"/>
  <outline>
    <contour>
      <point x="31" y="857" type="curve" smooth="yes"/>
      <point x="69" y="857"/>
      <point x="87" y="914"/>
      <point x="118" y="914" type="curve" smooth="yes"/>
      <point x="162" y="914"/>
      <point x="182" y="873"/>
      <point x="224" y="873" type="curve" smooth="yes"/>
      <point x="266" y="873"/>
      <point x="304" y="952"/>
      <point x="304" y="972" type="curve" smooth="yes"/>
      <point x="304" y="1000"/>
      <point x="301" y="1012"/>
      <point x="278" y="1012" type="curve" smooth="yes"/>
      <point x="262" y="1012"/>
      <point x="226" y="972"/>
      <point x="214" y="972" type="curve" smooth="yes"/>
      <point x="169" y="972"/>
      <point x="151" y="1017"/>
      <point x="106" y="1017" type="curve" smooth="yes"/>
      <point x="72" y="1017"/>
      <point x="2" y="926"/>
      <point x="2" y="903" type="curve" smooth="yes"/>
      <point x="2" y="877"/>
      <point x="9" y="857"/>
    </contour>
  </outline>
</glyph>
